<?xml version="1.0" encoding="UTF-8"?>
<svg width="158px" height="387px" viewBox="0 0 158 387" version="1.1" xmlns="http://www.w3.org/2000/svg" xmlns:xlink="http://www.w3.org/1999/xlink" style="background: #FFFFFF;">
    <!-- Generator: Sketch 54.1 (76490) - https://sketchapp.com -->
    <title>Untitled</title>
    <desc>Created with Sketch.</desc>
    <defs>
        <linearGradient x1="50%" y1="0%" x2="50%" y2="50%" id="linearGradient-1">
            <stop stop-color="#988E8E" stop-opacity="0.5" offset="0%"></stop>
            <stop stop-color="#000000" stop-opacity="0.5" offset="100%"></stop>
        </linearGradient>
        <polygon id="path-2" points="86 231 121 231 121 236 86 236"></polygon>
    </defs>
    <g id="Page-1" stroke="none" stroke-width="1" fill="none" fill-rule="evenodd">
        <g id="Group" transform="translate(-3.000000, 0.000000)">
            <path d="M95.0523434,19.702525 L77.5584676,7.39404191 L65.8467788,2.1125834 L48.2977158,0 C40.7718894,0.728944601 35.3855944,1.08104183 32.1388309,1.0562917 C28.3224083,1.02719905 25.2324766,1.29612266 22.2806417,1.0562917 C15.5619637,0.510411928 8.13508316,1.40807229 0,3.74927279 L9.10295534,11.6192087 L17.537288,27.8155 C21.53996,41.3421824 27.0802534,58.2188064 28.5511302,72.5581531 C29.3277562,80.1293571 27.470235,87.9555033 28.9037517,95.4110757 C29.4497518,98.2507655 31.6361317,102.675958 34.1953059,101.912928 C50.7405347,96.9798834 67.5250321,71.6636812 75.2009453,56.0337322 C82.5590386,41.0509386 84.4988513,30.906322 92.8546282,30.6004341 C95.1770558,30.5154147 98.7694825,31.6438677 102.434674,32.8466752 C104.894263,33.6538395 107.127686,33.6637202 110,36.4683588 L95.0523434,19.702525 Z" id="Path-7" stroke="#000000" fill="#FFFFFF"></path>
            <path d="M110,33.2885943 C110.211991,33.1585667 110.427983,33.0287675 110.647708,32.8993521 C117.944785,28.6014604 129.358835,24.7269056 135.046966,26.9690899 C151.403586,33.4166483 156.747673,63.4437195 160.456488,71.5483606 C161.032034,72.8060667 161.705469,74.9566131 162.476793,78 L165,4 L148.987852,5.97333333 C141.653178,9.04431177 136.434084,11.2881369 133.33057,12.7048088 C130.227056,14.1214806 126.942638,16.3061462 123.477316,19.2588056 L110,33.2885943 Z" id="Path-8" stroke="#000000" fill="#FFFFFF"></path>
            <path d="M83,39.9275231 C101.12928,29.1875318 131.073277,38.7226156 149,43" id="Path-10" stroke="#000000"></path>
            <path d="M78,52 C81.324828,55.5868344 85.6097949,58.530987 87.9744841,62.7605032 C99.6026601,83.5588205 89.7471788,87.9458862 110.016863,88.6068539 C115.224262,88.7766603 121.378227,91.5822741 125.647659,88.7181927 C132.326744,84.2376335 134.175453,75.3673025 139.070113,69.1169375 C142.98148,64.122215 147.690038,59.7502314 152,55.0668784" id="Path-11" stroke="#000000"></path>
            <path d="M106.315503,123.162394 C106.086962,119.172187 104.225785,96.6905202 113.105493,97.003231 C115.891299,97.1013368 116.573855,101.542404 117.162441,104.238122 C118.574228,110.704089 118.38748,117.412707 119,124" id="Path-12" stroke="#000000"></path>
            <polyline id="Path-13" stroke="#000000" points="98.0882828 86 86 347.256259 104.003225 381.584507 107.898065 386 111.241081 381.584507 132 349.891538 132 234.802877 129.796131 158.659937 125.876464 86.5478041"></polyline>
            <g id="Path-14">
                <use fill="#D8D8D8" xlink:href="#path-2"></use>
                <use fill="url(#linearGradient-1)" xlink:href="#path-2"></use>
            </g>
        </g>
    </g>
</svg>