<?xml version="1.0" encoding="UTF-8"?>
<svg width="158px" height="382px" viewBox="0 0 158 382" version="1.1" xmlns="http://www.w3.org/2000/svg" xmlns:xlink="http://www.w3.org/1999/xlink" style="background: #FFFFFF;">
    <!-- Generator: Sketch 54.1 (76490) - https://sketchapp.com -->
    <title>Untitled</title>
    <desc>Created with Sketch.</desc>
    <defs>
        <linearGradient x1="50%" y1="0%" x2="50%" y2="50%" id="linearGradient-1">
            <stop stop-color="#988E8E" stop-opacity="0.5" offset="0%"></stop>
            <stop stop-color="#000000" stop-opacity="0.5" offset="100%"></stop>
        </linearGradient>
        <polygon id="path-2" points="85 231 119 231 119 236 85 236"></polygon>
    </defs>
    <g id="Page-1" stroke="none" stroke-width="1" fill="none" fill-rule="evenodd">
        <g id="Group" transform="translate(1.000000, -6.000000)">
            <path d="M93.324119,19.702525 L76.1483136,7.39404191 L64.6495647,2.1125834 L47.4195756,0 C40.0305823,0.728944601 34.74222,1.08104183 31.5544885,1.0562917 C27.8074554,1.02719905 24.7737043,1.29612266 21.8755391,1.0562917 C15.2790189,0.510411928 7.98717255,1.40807229 0,3.74927279 L8.93744706,11.6192087 L17.2184282,27.8155 C21.1483244,41.3421824 26.5878852,58.2188064 28.0320188,72.5581531 C28.7945242,80.1293571 26.9707762,87.9555033 28.378229,95.4110757 C28.9143017,98.2507655 31.0609293,102.675958 33.5735731,101.912928 C49.8179795,96.9798834 66.2973042,71.6636812 73.8336554,56.0337322 C81.0579652,41.0509386 82.9625086,30.906322 91.1663623,30.6004341 C93.4465639,30.5154147 96.9736737,31.6438677 100.572226,32.8466752 C102.987095,33.6538395 104.67991,31.101346 107.5,33.9059846 L93.324119,19.702525 Z" id="Path-7" stroke="#000000" fill="#FFFFFF"></path>
            <path d="M107,34.8717615 C107.211991,34.7347054 107.427983,34.5978901 107.647708,34.4614793 C114.944785,29.931269 126.358835,25.8472789 132.046966,28.2106624 C148.403586,35.0067374 153.747673,66.6568935 157.456488,75.1996233 C158.032034,76.5253135 158.705469,78.7921057 159.476793,82 L162,4 L145.987852,6.08 C138.653178,9.31697727 133.434084,11.6820903 130.33057,13.175339 C127.227056,14.6685877 123.942638,16.9713433 120.477316,20.0836059 L107,34.8717615 Z" id="Path-8" stroke="#000000" fill="#FFFFFF"></path>
            <path d="M81,39.9275231 C98.8545941,29.1875318 128.344894,38.7226156 146,43" id="Path-10" stroke="#000000"></path>
            <path d="M76,52 C79.2798979,55.5868344 83.5069598,58.530987 85.8396938,62.7605032 C97.3107323,83.5588205 87.5884331,87.9458862 107.584202,88.6068539 C112.721232,88.7766603 118.792035,91.5822741 123.003772,88.7181927 C129.592599,84.2376335 131.416325,75.3673025 136.244841,69.1169375 C140.103352,64.122215 144.74828,59.7502314 149,55.0668784" id="Path-11" stroke="#000000"></path>
            <path d="M104.315503,123.162394 C104.086962,119.172187 102.225785,96.6905202 111.105493,97.003231 C113.891299,97.1013368 114.573855,101.542404 115.162441,104.238122 C116.574228,110.704089 116.38748,117.412707 117,124" id="Path-12" stroke="#000000"></path>
            <polyline id="Path-13" stroke="#000000" points="96.825494 88 85 347.51455 102.611851 381.613943 106.42202 386 109.692362 381.613943 130 350.132261 130 235.810858 127.844041 160.175538 124.009584 88.544152"></polyline>
            <g id="Path-14">
                <use fill="#D8D8D8" xlink:href="#path-2"></use>
                <use fill="url(#linearGradient-1)" xlink:href="#path-2"></use>
            </g>
        </g>
    </g>
</svg>