<?xml version="1.0" encoding="UTF-8"?>
<svg width="158px" height="387px" viewBox="0 0 158 387" version="1.1" xmlns="http://www.w3.org/2000/svg" xmlns:xlink="http://www.w3.org/1999/xlink" style="background: #FFFFFF;">
    <!-- Generator: Sketch 54.1 (76490) - https://sketchapp.com -->
    <title>Untitled</title>
    <desc>Created with Sketch.</desc>
    <defs>
        <linearGradient x1="50%" y1="0%" x2="50%" y2="50%" id="linearGradient-1">
            <stop stop-color="#988E8E" stop-opacity="0.5" offset="0%"></stop>
            <stop stop-color="#000000" stop-opacity="0.5" offset="100%"></stop>
        </linearGradient>
        <polygon id="path-2" points="83.554767 226.861106 118.677741 226.861106 118.677741 232.029954 83.554767 232.029954"></polygon>
    </defs>
    <g id="Page-1" stroke="none" stroke-width="1" fill="none" fill-rule="evenodd">
        <g id="Group" transform="translate(3.000000, 1.000000)">
            <path d="M107.33591,27.8915601 C117.05565,9.90181537 106.270038,27.6842104 141.672304,0.224816725" id="Path" stroke="#000000" fill="#FFFFFF"></path>
            <path d="M75.3266319,6 L45.2314575,6 L-1.42108547e-14,6 L4.42785187,10 L13.163217,25.3331616 C17.3087497,38.1389825 23.0467835,54.1162206 24.5701579,67.6913975 C25.3745026,74.8591182 23.450684,82.2681949 24.9353649,89.3264464 C25.5008524,92.0148039 27.7652671,96.2041702 30.4157817,95.4818027 C47.5515315,90.8116495 64.9350898,66.8445935 72.8849665,52.0475929 C84.0452035,31.2751912 85.5689484,12.6775999 108.926046,33.5248938" id="Path-7" stroke="#000000" fill="#FFFFFF"></path>
            <path d="M108.499718,25.5107801 C114.787784,21.2084192 125.136392,17.1645911 130.216823,19.3985386 C144.398918,25.6346343 149.032536,54.6768978 152.248283,62.5157283 C152.747314,63.732185 153.33122,65.8121993 154,68.7557712 L154,1 L141.672304,1" id="Path-8" stroke="#000000" fill="#FFFFFF"></path>
            <polyline id="Path-4" stroke="#000000" fill="#FFFFFF" points="107.599414 27.8915601 87.207679 9.31877251 74 1"></polyline>
            <path d="M78.1333354,34.2054489 C95.9879295,22.8332162 125.47823,32.929611 143.133335,37.4587962" id="Path-10" stroke="#000000"></path>
            <path d="M73.0203184,45.241205 C76.2967802,48.9271763 80.5194135,51.9527027 82.8497036,56.2991189 C94.3087244,77.6722832 84.5966109,82.1806035 104.571431,82.8598397 C109.703079,83.0343394 115.767522,85.9174979 119.974847,82.9742558 C126.556771,78.369858 128.378586,69.2543589 133.202044,62.8312394 C137.056512,57.6984672 141.696574,53.2056459 145.943839,48.3928492" id="Path-11" stroke="#000000"></path>
            <path d="M100.318388,118.869714 C100.085961,114.768013 98.1931449,91.6581653 107.223805,91.9796138 C110.056968,92.0804609 110.751128,96.6456202 111.34972,99.4166618 C112.785507,106.0633 112.595584,112.95937 113.218517,119.730725" id="Path-12" stroke="#000000"></path>
            <polyline id="Path-13" stroke="#000000" points="94.5952699 82.4229781 83.554767 345.335863 99.9975213 379.881786 103.554767 384.325278 106.608019 379.881786 125.567611 347.987853 125.567611 232.169414 123.554767 155.543652 119.974847 82.9742558"></polyline>
            <g id="Path-14">
                <use fill="#D8D8D8" xlink:href="#path-2"></use>
                <use fill="url(#linearGradient-1)" xlink:href="#path-2"></use>
            </g>
        </g>
    </g>
</svg>